<svg xmlns="http://www.w3.org/2000/svg" width="53" height="53" viewBox="0 0 53 53"><path fill="#666766" d="M13.425 14.292h7.15v7.025h-7.15z"/><path fill="#666766" d="M12.98 15.454v4.523c0 .982.8 1.78 1.782 1.78h4.524c.98 0 1.78-.798 1.78-1.78v-4.523c0-.982-.798-1.782-1.78-1.782h-4.524c-.982 0-1.78.8-1.78 1.782zm.85 0c0-.514.42-.934.933-.934h4.524c.514 0 .932.42.932.934v4.525c0 .51-.42.93-.933.93h-4.524c-.514 0-.933-.42-.933-.93v-4.526zM12.98 24.954v4.523c0 .982.8 1.78 1.782 1.78h4.524c.98 0 1.78-.798 1.78-1.78v-4.523c0-.982-.798-1.782-1.78-1.782h-4.524c-.982 0-1.78.8-1.78 1.782zm.85 0c0-.514.42-.934.933-.934h4.524c.514 0 .932.42.932.934v4.523c0 .514-.42.934-.933.934h-4.524c-.514 0-.933-.42-.933-.933v-4.523zM12.98 34.452v4.525c0 .98.8 1.78 1.782 1.78h4.524c.98 0 1.78-.8 1.78-1.78v-4.525c0-.98-.798-1.78-1.78-1.78h-4.524c-.982 0-1.78.8-1.78 1.78zm.85.002c0-.515.42-.934.933-.934h4.524c.514 0 .932.418.932.934v4.523c0 .514-.42.933-.933.933h-4.524c-.514 0-.933-.42-.933-.933v-4.523zM30.172 16.358c0 .234.19.424.424.424h9.047c.234 0 .425-.19.425-.424s-.19-.424-.425-.424h-9.047c-.234 0-.424.19-.424.424zM23.387 16.358c0 .234.19.424.425.424h4.975c.233 0 .425-.19.425-.424s-.19-.424-.425-.424h-4.975c-.235 0-.425.19-.425.424zM23.387 19.073c0 .234.19.424.425.424h1.81c.234 0 .423-.19.423-.424 0-.232-.188-.425-.424-.425h-1.808c-.235 0-.425.193-.425.425zM35.6 19.073c0 .234.19.424.425.424h3.618c.234 0 .425-.19.425-.424 0-.232-.19-.425-.425-.425h-3.618c-.235 0-.425.19-.425.425zM27.005 19.073c0 .234.19.424.425.424h6.785c.235 0 .424-.19.424-.424 0-.232-.19-.425-.425-.425H27.43c-.235 0-.425.193-.425.425zM30.172 25.857c0 .235.19.425.424.425h9.047c.234 0 .425-.19.425-.425 0-.233-.19-.423-.425-.423h-9.047c-.234 0-.424.19-.424.423zM23.387 25.857c0 .235.19.425.425.425h4.975c.233 0 .425-.19.425-.425 0-.233-.19-.423-.425-.423h-4.975c-.235 0-.425.19-.425.423zM23.387 28.573c0 .233.19.423.425.423h1.81c.234 0 .423-.19.423-.423 0-.236-.188-.426-.424-.426h-1.808c-.235 0-.425.19-.425.426zM35.6 28.573c0 .233.19.423.425.423h3.618c.234 0 .425-.19.425-.423 0-.236-.19-.426-.425-.426h-3.618c-.235 0-.425.19-.425.426zM27.005 28.573c0 .233.19.423.425.423h6.785c.235 0 .424-.19.424-.423 0-.236-.19-.426-.425-.426H27.43c-.235 0-.425.19-.425.426zM30.172 35.358c0 .233.19.424.424.424h9.047c.234 0 .425-.19.425-.424 0-.234-.19-.426-.425-.426h-9.047c-.234 0-.424.192-.424.426zM23.387 35.358c0 .233.19.424.425.424h4.975c.233 0 .425-.19.425-.424 0-.234-.19-.426-.425-.426h-4.975c-.235 0-.425.192-.425.426zM23.387 38.073c0 .234.19.424.425.424h1.81c.234 0 .423-.19.423-.424s-.188-.425-.424-.425h-1.808c-.235 0-.425.19-.425.425zM35.6 38.073c0 .234.19.424.425.424h3.618c.234 0 .425-.19.425-.424s-.19-.425-.425-.425h-3.618c-.235 0-.425.19-.425.425zM27.005 38.073c0 .234.19.424.425.424h6.785c.235 0 .424-.19.424-.424s-.19-.425-.425-.425H27.43c-.235 0-.425.19-.425.425z"/><text transform="translate(14.693 19.892)" fill="#FFF" font-family="'ProximaNova-Semibold'" font-size="6.656">A</text><text transform="translate(14.693 29.506)" fill="#666766" font-family="'ProximaNova-Semibold'" font-size="6.656">B</text><text transform="translate(14.693 38.874)" fill="#666766" font-family="'ProximaNova-Semibold'" font-size="6.656">C</text><path fill="none" stroke="#666766" stroke-width="2" stroke-miterlimit="10" d="M44.25 43.695c0 .817-.662 1.48-1.48 1.48H10.23c-.818 0-1.48-.663-1.48-1.48V9.305c0-.817.662-1.48 1.48-1.48h32.54c.817 0 1.48.663 1.48 1.48v34.39z"/></svg>