<svg xmlns="http://www.w3.org/2000/svg" xmlns:xlink="http://www.w3.org/1999/xlink" width="53" height="53" viewBox="0 0 53 53"><defs><circle id="a" cx="26.5" cy="26.501" r="26.46"/></defs><clipPath id="b"><use xlink:href="#a" overflow="visible"/></clipPath><g clip-path="url(#b)" fill="#666766"><path d="M17.81 21.08c0 2.788.988 5.608 2.71 7.742 1.81 2.24 4.168 3.474 6.644 3.474 2.475 0 4.83-1.233 6.635-3.47 1.717-2.13 2.702-4.954 2.702-7.74v-2.492c1.826-5.8 1.148-10.695.555-12.044l-.004-.007c-.006-.013-.012-.024-.02-.036-.002-.007-.006-.013-.01-.02-.005-.012-.01-.02-.02-.03-.003-.01-.008-.016-.013-.023-.006-.007-.013-.015-.02-.02-.006-.01-.013-.02-.02-.027l-.015-.017-.027-.027-.014-.01c-.01-.012-.02-.02-.033-.028-.003-.004-.01-.007-.013-.01-.012-.01-.023-.017-.035-.024-.006-.003-.012-.005-.018-.01-.012-.005-.022-.01-.033-.018l-.023-.01c-.01-.004-.02-.01-.03-.013-.01-.003-.018-.008-.027-.01-.01-.004-.02-.007-.03-.008l-.027-.007c-.01-.003-.02-.006-.03-.006-.01-.003-.018-.005-.028-.005-.01 0-.022-.003-.034-.003h-.082l-.042.003H36.4c-1.56.224-3.448-.156-5.447-.558-3.352-.673-6.815-1.366-9.522.564-.04-.008-.083-.01-.126-.01-2.777 0-4.717 2.3-4.717 5.596 0 2.547 1.072 7.3 1.225 7.963v1.34zm15.02 6.963c-1.564 1.94-3.575 3.008-5.667 3.008s-4.107-1.068-5.675-3.01c-1.548-1.917-2.435-4.453-2.435-6.958v-.71c0-2.213 1.255-5.206 1.683-6.157 4.297-.505 7.72 0 9.854.52 1.873.457 3.102 1.006 3.545 1.22l1.12 2.67v2.462c.002 2.507-.883 5.043-2.426 6.956zM21.3 7.42c.06 0 .12-.01.174-.025.182.054.385.02.546-.102 2.284-1.734 5.538-1.082 8.684-.45 1.65.334 3.23.65 4.688.65.226 0 .447-.01.665-.026.383 1.38.744 4.86-.298 9.148l-.568-1.353c-.054-.128-.15-.235-.272-.304-.23-.127-5.723-3.09-14.684-1.938h-.005c-.01.002-.022.005-.034.006-.01.004-.02.005-.028.006l-.02.006c-.08.022-.15.06-.214.107-.04.03-.077.068-.11.108l-.002.004-.02.026c-.005.008-.01.016-.017.024l-.012.02-.02.036v.003c-.05.1-.753 1.568-1.302 3.364-.31-1.643-.627-3.65-.627-4.958 0-3.006 1.743-4.352 3.472-4.352z"/><path d="M44.625 37.117c-.84-1.228-2.007-2.08-3.382-2.465-.013-.004-.026-.008-.04-.01l-4.96-1.038-1.337-2.024-.02-.03c-.203-.27-.512-.448-.846-.49-.335-.04-.677.06-.938.272l-.012.01-5.934 5.107-5.934-5.108-.012-.01c-.26-.213-.603-.313-.938-.27-.334.04-.643.22-.845.487-.007.01-.015.02-.02.03l-1.336 2.024-4.96 1.037-.04.012c-1.375.385-2.544 1.237-3.382 2.465-.768 1.124-1.19 2.48-1.19 3.818v1.542c0 1.243 1.116 2.256 2.488 2.256H43.327c1.372 0 2.487-1.013 2.487-2.256v-1.542c0-1.338-.42-2.694-1.188-3.818zm-10.735-4.82l1.22 1.847-4.296 5.905-1.35-1.353-1.392-1.392 5.818-5.01zm-7.354 9.326h1.243c.037 0 .073 0 .11-.002l.374 1.87H26.05l.374-1.87c.038.003.073.003.112.003zm1.865-1.865c0 .344-.278.622-.62.622h-1.244c-.344 0-.623-.278-.623-.622v-.364l1.244-1.245 1.244 1.244v.364zm-7.974-7.462l5.818 5.01-1.393 1.39-1.35 1.353-4.294-5.907 1.22-1.847zM9.744 42.478v-1.542c0-2.013 1.25-4.4 3.644-5.08l4.797-1.004 4.738 6.516c.107.146.273.24.455.255h.048c.165 0 .323-.064.44-.18l.953-.954c.1.235.25.45.437.624l-.475 2.375H10.988c-.686 0-1.244-.455-1.244-1.012zm34.826 0c0 .558-.558 1.012-1.243 1.012H29.532l-.475-2.375c.187-.175.337-.39.438-.625l.953.953c.116.117.275.18.44.18h.048c.18-.014.347-.107.454-.254l4.738-6.517 4.798 1.004c2.392.68 3.643 3.067 3.643 5.08v1.54z"/></g></svg>