<svg xmlns="http://www.w3.org/2000/svg" width="53" height="53" viewBox="0 0 53 53"><g fill="#666766"><path d="M34.858 23.455h-24.41c-1.825 0-3.31 1.486-3.31 3.313v13.395c0 1.825 1.485 3.31 3.31 3.31h1.523l-.518 2.042c-.062.244.024.502.218.666.12.1.27.15.418.15.095 0 .187-.017.277-.06l6.027-2.797h16.465c1.825 0 3.313-1.485 3.313-3.31V26.766c0-1.826-1.487-3.312-3.312-3.312zm2 16.707c0 1.102-.897 2.002-2 2.002H18.25c-.097 0-.188.018-.276.06l-4.908 2.274.387-1.518c.05-.2.007-.406-.12-.566-.122-.158-.315-.25-.514-.25h-2.37c-1.103 0-2-.9-2-2.002V26.767c0-1.104.897-2.002 2-2.002h24.41c1.103 0 1.998.898 1.998 2.002v13.395z"/><path d="M33.23 27.3H12.08c-.365 0-.656.293-.656.656 0 .36.29.654.655.654h21.15c.36 0 .654-.293.654-.654 0-.363-.293-.656-.653-.656zM33.23 30.915H12.08c-.365 0-.656.293-.656.655 0 .36.29.656.655.656h21.15c.36 0 .654-.295.654-.656 0-.362-.293-.655-.653-.655zM33.23 34.527H12.08c-.365 0-.656.295-.656.654 0 .364.29.658.655.658h21.15c.36 0 .654-.293.654-.657 0-.358-.293-.653-.653-.653zM33.23 38.14H12.08c-.365 0-.656.293-.656.656 0 .36.29.655.655.655h21.15c.36 0 .654-.292.654-.654 0-.363-.293-.656-.653-.656zM42.55 6.67H31.537c-1.825 0-3.31 1.484-3.31 3.31v7.858c0 1.825 1.484 3.313 3.31 3.313h2.813l5.268 2.443c.086.04.18.06.274.06.122 0 .243-.036.35-.1.187-.12.304-.325.306-.545l.027-1.857h1.977c1.826 0 3.31-1.486 3.31-3.312V9.98c0-1.826-1.486-3.31-3.312-3.31zm2 11.168c0 1.104-.898 2-2 2h-2.623c-.356 0-.65.29-.655.647l-.02 1.493-4.48-2.08c-.09-.037-.182-.06-.277-.06h-2.957c-1.104 0-2-.896-2-2V9.98c0-1.102.897-2 2-2H42.55c1.102 0 2 .898 2 2v7.858z"/><path d="M37.043 9.517c-1.568 0-2.843 1.275-2.843 2.846 0 .363.29.655.652.655.365 0 .656-.292.656-.655 0-.846.688-1.535 1.534-1.535s1.533.69 1.533 1.535c0 .53-.27 1.018-.723 1.303-1 .573-1.598 1.637-1.56 2.773.01.354.3.634.655.634h.02c.363-.01.646-.316.636-.678-.02-.65.324-1.266.906-1.598.01-.004.02-.01.028-.016.844-.523 1.35-1.43 1.35-2.42 0-1.57-1.274-2.845-2.845-2.845zM36.952 17.728c-.174 0-.342.068-.465.19-.12.124-.19.292-.19.467 0 .17.07.34.19.46.123.123.293.193.465.193s.344-.07.463-.193c.123-.12.194-.29.194-.46 0-.174-.072-.343-.195-.467-.12-.122-.29-.19-.463-.19z"/></g></svg>