<svg xmlns="http://www.w3.org/2000/svg" width="53" height="53" viewBox="0 0 53 53"><g fill="#666766"><path d="M41.567 30.265c-.41 0-.686.272-.686.687 0 1.506-1.233 2.738-2.74 2.738-.41 0-.683.274-.683.684 0 .412.273.686.684.686 2.263 0 4.11-1.847 4.11-4.11 0-.412-.272-.685-.683-.685zM38.83 27.526c0-.41-.276-.686-.69-.686-2.257 0-4.106 1.85-4.106 4.11 0 .412.273.685.686.685.408 0 .684-.273.684-.684 0-1.507 1.234-2.74 2.738-2.74.412 0 .687-.274.687-.684z"/><path d="M46.362 8.348H6.638c-.41 0-.686.275-.686.686V39.17c0 .41.275.687.686.687H34.72v4.11c0 .272.137.546.408.614.275.138.55.07.756-.136l2.258-2.26 2.262 2.26c.137.137.273.205.48.205.07 0 .206 0 .34-.07.276-.067.413-.34.413-.614v-4.11h4.727c.412 0 .686-.274.686-.687V9.033c-.002-.41-.276-.686-.688-.686zm-8.22 28.082c-1.31 0-2.516-.465-3.46-1.24-.04-.033-.083-.07-.12-.104-.014-.01-.02-.018-.03-.027-.915-.814-1.548-1.905-1.776-3.116l-.014-.083c-.008-.042-.014-.085-.02-.128-.01-.063-.02-.13-.027-.193-.002-.026-.006-.054-.006-.08-.007-.064-.01-.124-.017-.19-.002-.022-.002-.046-.002-.07-.005-.084-.005-.166-.005-.248 0-3.016 2.463-5.48 5.477-5.48.086 0 .166.002.248.006.026 0 .05 0 .075.004.06.003.12.007.182.013l.102.012c.058.006.114.012.173.02.047.008.098.015.145.024l.05.01c1.655.303 3.087 1.372 3.89 2.924.025.05.057.092.092.13.338.712.525 1.503.525 2.335-.003 3.014-2.468 5.48-5.483 5.48zm4.796-10.357c-1.162-1.143-2.725-1.875-4.45-1.962-.114-.005-.23-.007-.347-.007-3.765 0-6.847 3.08-6.847 6.85 0 .115.004.23.01.344.085 1.726.82 3.29 1.96 4.45h-20.53c-.275-1.372-1.303-2.4-2.672-2.673V15.13c1.37-.276 2.397-1.303 2.673-2.673h27.533c.273 1.37 1.3 2.396 2.672 2.672v10.943zM40.196 42.32l-1.574-1.573c-.137-.14-.273-.207-.48-.207-.203 0-.342.068-.48.207L36.09 42.32v-4.794c1.3.41 2.806.41 4.106 0v4.793zm-28.08-31.234c-.41 0-.686.276-.686.686 0 1.166-.89 2.055-2.055 2.055-.41 0-.686.275-.686.686V33.69c0 .412.274.684.685.684 1.164 0 2.055.892 2.055 2.057 0 .41.275.686.686.686H34.72v1.368H7.32V9.717h38.356v28.768h-4.04v-1.65c2.002-1.197 3.354-3.39 3.354-5.883 0-1.066-.246-2.076-.686-2.977V14.513c0-.41-.27-.686-.684-.686-1.164 0-2.055-.89-2.055-2.055 0-.41-.273-.686-.686-.686"/><path d="M22.39 16.567h8.218c.412 0 .686-.275.686-.686s-.273-.682-.686-.682h-8.22c-.41 0-.686.273-.686.683s.277.687.687.687zM37.458 18.622H15.54c-.41 0-.684.276-.684.686 0 .41.273.684.684.684h21.918c.412 0 .684-.273.684-.684 0-.41-.272-.686-.684-.686zM37.458 22.045H15.54c-.41 0-.684.275-.684.686s.273.687.684.687h21.918c.412 0 .684-.275.684-.686s-.272-.685-.684-.685zM29.237 25.47H19.65c-.41 0-.687.274-.687.687 0 .41.275.684.688.684h9.587c.414 0 .686-.272.686-.683 0-.412-.272-.686-.686-.686zM15.54 26.84h1.37c.41 0 .685-.273.685-.684 0-.412-.275-.686-.686-.686h-1.37c-.41 0-.684.273-.684.686 0 .41.274.684.684.684zM21.02 28.898h-5.48c-.41 0-.684.27-.684.683s.273.686.684.686h5.48c.41 0 .683-.272.683-.685 0-.41-.272-.682-.684-.682z"/></g></svg>