<svg xmlns="http://www.w3.org/2000/svg" xmlns:xlink="http://www.w3.org/1999/xlink" width="53" height="53" viewBox="0 0 53 53"><defs><circle id="a" cx="26.5" cy="26.499" r="26.88"/></defs><clipPath id="b"><use xlink:href="#a" overflow="visible"/></clipPath><g fill="#666766" clip-path="url(#b)"><path d="M43.513 8.325H10.4c-.812 0-1.472.66-1.472 1.47V42.91c0 .812.66 1.472 1.47 1.472h33.114c.814 0 1.473-.66 1.473-1.473V9.795c0-.81-.658-1.47-1.472-1.47zm0 34.584H10.4V14.95H43.51v27.96zm0-29.432H10.4V9.796H43.51v3.682z"/><path d="M11.87 10.902h2.576v1.47H11.87zM15.552 10.902h2.574v1.47h-2.574zM39.464 10.902h2.577v1.47h-2.576zM17.76 30.402h1.263c.074.2.154.396.24.584l-.893.896c-.275.277-.43.646-.43 1.04 0 .39.154.76.43 1.038l2.084 2.083c.278.277.646.432 1.04.432.392 0 .76-.154 1.036-.428l.898-.894c.19.086.383.164.584.24v1.264c0 .813.66 1.47 1.473 1.47h2.943c.812 0 1.47-.657 1.47-1.47v-1.264c.204-.076.4-.154.585-.24l.896.89c.278.277.647.432 1.04.432s.76-.154 1.037-.432l2.086-2.083c.275-.277.428-.648.428-1.04s-.15-.76-.427-1.036l-.895-.898c.086-.188.165-.383.238-.584h1.268c.813 0 1.47-.66 1.47-1.473v-2.944c0-.813-.657-1.473-1.47-1.473h-1.268c-.073-.2-.152-.394-.238-.582l.895-.897c.275-.277.428-.644.428-1.037 0-.393-.15-.764-.427-1.04l-2.086-2.084c-.277-.277-.645-.43-1.037-.43s-.762.152-1.04.428l-.897.894c-.186-.086-.38-.166-.584-.24V18.26c0-.813-.66-1.473-1.472-1.473h-2.943c-.813 0-1.473.66-1.473 1.473v1.264c-.2.074-.395.154-.584.24l-.895-.893c-.28-.276-.648-.43-1.04-.43-.394 0-.762.153-1.04.43l-2.084 2.084c-.276.277-.43.648-.43 1.04 0 .394.153.76.43 1.036l.892.9c-.086.188-.166.383-.24.582h-1.264c-.814 0-1.473.662-1.473 1.473v2.943c0 .813.66 1.474 1.474 1.474zm0-4.416h1.794c.326 0 .61-.213.705-.524.145-.484.325-.93.54-1.322.156-.287.11-.643-.12-.873l-1.267-1.27 2.082-2.08 1.27 1.263c.234.232.588.28.873.125.393-.217.84-.398 1.322-.545.313-.09.525-.38.525-.705v-1.793h2.943v1.793c0 .326.213.615.525.705.482.147.928.328 1.32.545.285.155.643.107.872-.125l1.272-1.266 2.08 2.082-1.266 1.27c-.228.23-.278.587-.122.874.217.393.398.838.545 1.322.094.31.38.524.702.524h1.798v2.943h-1.798c-.323 0-.608.212-.702.522-.146.485-.328.93-.545 1.322-.156.287-.105.643.123.873l1.27 1.273-2.08 2.078-1.275-1.266c-.23-.23-.587-.28-.87-.123-.395.216-.84.397-1.322.544-.313.094-.525.38-.525.703v1.797h-2.943v-1.797c0-.324-.213-.61-.525-.705-.482-.145-.93-.327-1.322-.543-.11-.062-.232-.09-.352-.09-.19 0-.38.072-.52.212L21.495 35l-2.083-2.08 1.266-1.274c.23-.23.276-.586.12-.873-.215-.393-.396-.837-.54-1.322-.095-.31-.38-.522-.706-.522H17.76v-2.942z"/><path d="M26.958 31.138c2.03 0 3.676-1.652 3.676-3.682 0-2.025-1.646-3.678-3.676-3.678s-3.682 1.652-3.682 3.678c0 2.03 1.653 3.682 3.682 3.682zm0-5.89c1.217 0 2.207.99 2.207 2.208s-.99 2.21-2.207 2.21c-1.217 0-2.21-.993-2.21-2.21s.993-2.207 2.21-2.207zM36.89 19.363h1.473v1.472H36.89zM39.097 19.363h1.473v1.472h-1.473zM41.307 19.363h1.472v1.472h-1.473zM11.138 34.08h1.47v1.472h-1.47zM13.345 34.08h1.47v1.472h-1.47zM15.552 34.08h1.47v1.472h-1.47zM13.71 39.968h26.494v1.47H13.71z"/></g></svg>